<svg width="80" height="62" viewBox="0 0 80 62" fill="none" xmlns="http://www.w3.org/2000/svg">
<g id="3-User">
<path id="Combined-Shape" fill-rule="evenodd" clip-rule="evenodd" d="M40.0018 38.2653L40.4167 38.2654L41.3448 38.2686C48.4386 38.3153 64.6498 39.0319 64.6498 50.0197C64.6498 60.9355 49.0037 61.6473 41.4554 61.6938L38.6588 61.6938C31.5646 61.6471 15.3502 60.9314 15.3502 49.9573C15.3502 39.0278 31.5646 38.315 38.6588 38.2685L39.5869 38.2654C39.7309 38.2653 39.8693 38.2653 40.0018 38.2653ZM40.0018 43.7769C31.2714 43.7769 20.8618 44.8498 20.8618 49.9573C20.8618 54.9491 30.6501 56.1162 39.2039 56.1823L40.0018 56.1854C48.7322 56.1854 59.1382 55.1161 59.1382 50.0197C59.1382 44.8609 48.7322 43.7769 40.0018 43.7769ZM69.2266 36.7742C78.1297 38.108 80 42.2895 80 45.5634C80 47.5623 79.2137 51.211 73.9593 53.2135C73.6359 53.3348 73.3052 53.3936 72.9782 53.3936C71.8685 53.3936 70.8213 52.7175 70.4024 51.6188C69.8586 50.1968 70.5751 48.6021 71.9971 48.062C74.4884 47.114 74.4884 46.0668 74.4884 45.5634C74.4884 43.954 72.4417 42.8297 68.4072 42.2271C66.9044 41.9992 65.8645 40.5993 66.0887 39.0891C66.3128 37.5826 67.7091 36.5795 69.2266 36.7742ZM13.9113 39.0891C14.1355 40.5993 13.0956 41.9992 11.5928 42.2271C7.55826 42.8297 5.51162 43.954 5.51162 45.5634C5.51162 46.0668 5.51162 47.1103 8.00654 48.062C9.42854 48.6021 10.145 50.1968 9.60123 51.6188C9.18235 52.7175 8.13514 53.3936 7.02547 53.3936C6.69845 53.3936 6.36775 53.3348 6.0444 53.2135C0.786324 51.2073 0 47.5586 0 45.5634C0 42.2932 1.87028 38.108 10.777 36.7742C12.2946 36.5832 13.6835 37.5826 13.9113 39.0891ZM40.0018 0C49.2613 0 56.7902 7.53254 56.7902 16.7884C56.7902 26.0442 49.2613 33.5768 40.0018 33.5768H39.9026C35.4198 33.5621 31.22 31.8057 28.0747 28.631C24.9221 25.46 23.1988 21.2491 23.217 16.7774C23.217 7.53254 30.746 0 40.0018 0ZM40.0018 5.51161C33.7847 5.51161 28.7287 10.5713 28.7287 16.7884C28.7177 19.8014 29.8715 22.6197 31.9843 24.7471C34.0971 26.8746 36.9117 28.0541 39.91 28.0651L40.0018 30.8209V28.0651C46.2189 28.0651 51.2786 23.0092 51.2786 16.7884C51.2786 10.5713 46.2189 5.51161 40.0018 5.51161ZM62.7428 3.59908C69.2024 4.66099 73.8946 10.1873 73.8946 16.7388C73.8799 23.3343 68.9525 28.9929 62.4304 29.9079C62.3018 29.9262 62.1732 29.9336 62.0483 29.9336C60.6961 29.9336 59.5166 28.9378 59.3219 27.5599C59.1124 26.0497 60.1597 24.6571 61.6698 24.4477C65.4912 23.9112 68.3756 20.5969 68.383 16.7314C68.383 12.899 65.6345 9.65819 61.8462 9.03721C60.347 8.79103 59.3292 7.3727 59.5754 5.86987C59.8253 4.36704 61.2326 3.36025 62.7428 3.59908ZM20.4283 5.86987C20.6744 7.3727 19.6566 8.79103 18.1575 9.03721C14.3691 9.65819 11.6207 12.899 11.6207 16.7388C11.628 20.5969 14.5125 23.9149 18.3302 24.4477C19.8403 24.6571 20.8876 26.0497 20.6781 27.5599C20.4834 28.9378 19.3039 29.9336 17.9517 29.9336C17.8268 29.9336 17.6982 29.9262 17.5696 29.9079C11.0475 28.9929 6.12377 23.3343 6.10907 16.7461C6.10907 10.1873 10.8013 4.66099 17.2609 3.59908C18.8078 3.35657 20.1784 4.37438 20.4283 5.86987Z" fill="black" style="fill:black;fill-opacity:1;"/>
</g>
</svg>
