<svg width="127" height="125" viewBox="0 0 127 125" fill="none" xmlns="http://www.w3.org/2000/svg">
<g id="fingerprint_24px">
<path id="icon/action/fingerprint_24px" fill-rule="evenodd" clip-rule="evenodd" d="M94.2711 23.2826C93.8477 23.2826 93.4244 23.1784 93.054 22.9701C82.894 17.8138 74.1098 15.6263 63.5794 15.6263C53.1019 15.6263 43.1536 18.0742 34.1048 22.9701C32.8348 23.6471 31.2473 23.1784 30.5065 21.9284C29.8186 20.6784 30.2948 19.0638 31.5648 18.3867C41.4073 13.1263 52.2023 10.418 63.5794 10.418C74.8506 10.418 84.6931 12.8659 95.4881 18.3346C96.8111 19.0117 97.2873 20.5742 96.5994 21.8242C96.1231 22.7617 95.2236 23.2826 94.2711 23.2826ZM18.5473 50.6263C18.0181 50.6263 17.489 50.4701 17.0127 50.1576C15.7956 49.3242 15.5311 47.7096 16.3777 46.5117C21.6165 39.2201 28.284 33.4909 36.2215 29.4805C52.8373 21.043 74.1098 20.9909 90.7786 29.4284C98.7161 33.4388 105.384 39.1159 110.622 46.3555C111.469 47.5013 111.204 49.168 109.987 50.0013C108.77 50.8346 107.13 50.5742 106.283 49.3763C101.521 42.8138 95.4881 37.6576 88.3444 34.0638C73.1573 26.4076 53.7369 26.4076 38.6027 34.1159C31.4061 37.7617 25.3736 42.9701 20.6111 49.5326C20.1877 50.2617 19.394 50.6263 18.5473 50.6263ZM49.7681 112.71C50.2444 113.23 50.9323 113.491 51.6202 113.491C52.3081 113.491 52.9961 113.23 53.5781 112.71C54.5836 111.668 54.5836 110.053 53.5781 109.012C49.5036 104.949 47.1752 102.397 43.7886 96.4076C40.5606 90.7825 38.8673 83.8555 38.8673 76.3555C38.8673 63.7513 49.9269 53.4909 63.5265 53.4909C77.1261 53.4909 88.1856 63.7513 88.1856 76.3555C88.1856 77.8138 89.3498 78.9596 90.8315 78.9596C92.3131 78.9596 93.4773 77.8138 93.4773 76.3555C93.4773 60.8867 80.0365 48.2826 63.5265 48.2826C47.0165 48.2826 33.5756 60.8867 33.5756 76.3555C33.5756 84.7409 35.4806 92.5534 39.1319 98.9596C42.6773 105.262 45.1644 108.178 49.7681 112.71ZM89.5615 103.855C83.2644 103.855 77.7081 102.293 73.1573 99.2201C65.2727 93.9596 60.5631 85.418 60.5631 76.3555C60.5631 74.8971 61.7273 73.7513 63.209 73.7513C64.6906 73.7513 65.8548 74.8971 65.8548 76.3555C65.8548 83.6992 69.6648 90.6263 76.1206 94.8971C79.8777 97.3971 84.2698 98.5951 89.5615 98.5951C90.8315 98.5951 92.9482 98.4388 95.0648 98.0742C96.4936 97.8138 97.8694 98.7513 98.134 100.21C98.3986 101.616 97.4461 102.97 95.9644 103.23C92.9482 103.803 90.3023 103.855 89.5615 103.855ZM78.2373 114.48C78.449 114.533 78.7136 114.585 78.9252 114.585C80.0365 114.585 81.1477 113.803 81.4123 112.605C81.7827 111.251 80.989 109.793 79.5602 109.428C72.099 107.397 67.2836 104.689 62.2565 99.793C55.8536 93.543 52.3611 85.2096 52.3611 76.3034C52.3611 70.7305 57.2823 66.1992 63.3677 66.1992C69.4531 66.1992 74.3744 70.7305 74.3744 76.3034C74.3744 84.7409 81.6769 91.6159 90.6727 91.6159C99.6686 91.6159 106.971 84.7409 106.971 76.3034C106.971 53.8034 87.3919 35.5221 63.3148 35.5221C46.2227 35.5221 30.6123 44.9492 23.5744 59.4805C21.1931 64.4284 19.9761 70.1055 19.9761 76.3555C19.9761 83.3867 21.2461 90.1576 23.839 96.9805C24.3152 98.2825 25.8498 99.0117 27.2256 98.4909C28.6015 98.0221 29.2894 96.5117 28.7602 95.1575C25.5852 86.8242 25.2148 80.418 25.2148 76.3555C25.2148 70.9388 26.2731 65.9909 28.3369 61.7721C34.5281 49.0117 48.2865 40.7826 63.3148 40.7826C84.4815 40.7826 101.679 56.7201 101.679 76.3555C101.679 81.9284 96.7581 86.4596 90.6727 86.4596C84.5873 86.4596 79.6661 81.9284 79.6661 76.3555C79.6661 67.918 72.3636 61.043 63.3677 61.043C54.3719 61.043 47.0694 67.918 47.0694 76.3555C47.0694 86.668 51.144 96.3034 58.5523 103.543C64.3202 109.116 69.8236 112.189 78.2373 114.48Z" fill="#CA1F24" style="fill:#CA1F24;fill:color(display-p3 0.7922 0.1216 0.1412);fill-opacity:1;"/>
</g>
</svg>
