<svg width="68" height="72" viewBox="0 0 68 72" fill="none" xmlns="http://www.w3.org/2000/svg">
<path fill-rule="evenodd" clip-rule="evenodd" d="M38.8661 47.8474C42.8599 47.8474 46.1106 51.105 46.1106 55.1092V65.4078C46.1106 66.2682 46.794 66.9579 47.6697 66.978H53.992C58.9742 66.978 63.0244 62.9403 63.0244 57.9785V28.7704C63.0012 27.0629 62.1951 25.4558 60.8119 24.3878L38.9424 6.78393C36.0068 4.43696 31.9003 4.43696 28.9547 6.79062L7.23454 24.3811C5.79824 25.4826 4.9922 27.0897 4.97561 28.8273V57.9785C4.97561 62.9403 9.02575 66.978 14.008 66.978H20.39C21.289 66.978 22.0187 66.2581 22.0187 65.3743C22.0187 65.1801 22.042 64.9859 22.0818 64.8018V55.1092C22.0818 51.1284 25.3126 47.8742 29.2765 47.8474H38.8661ZM53.992 72H47.61C43.9545 71.913 41.135 69.0169 41.135 65.4078V55.1092C41.135 53.8738 40.1167 52.8694 38.8661 52.8694H29.2931C28.0691 52.8761 27.0574 53.8839 27.0574 55.1092V65.3743C27.0574 65.6254 27.0242 65.8664 26.9545 66.0941C26.5963 69.4086 23.79 72 20.39 72H14.008C6.28254 72 0 65.7091 0 57.9785V28.8039C0.0331707 25.4759 1.55239 22.4292 4.1762 20.4238L25.8533 2.86339C30.6265 -0.953348 37.2773 -0.953348 42.0406 2.8567L63.8736 20.4338C66.4377 22.4058 67.9569 25.4458 68 28.7335V57.9785C68 65.7091 61.7175 72 53.992 72Z" fill="black" style="fill:black;fill-opacity:1;"/>
</svg>
