<svg width="68" height="72" viewBox="0 0 68 72" fill="none" xmlns="http://www.w3.org/2000/svg">
<g id="Iconly/Light-Outline/Document">
<g id="Document">
<path id="Combined-Shape" fill-rule="evenodd" clip-rule="evenodd" d="M48.3244 0C60.0938 0 68 7.78584 68 19.3724V52.6276C68 64.3154 60.3371 71.9168 48.4778 71.9892L19.6794 72C7.90994 72 0 64.2142 0 52.6276V19.3724C0 7.68096 7.66287 0.0831743 19.5222 0.0144651L48.3206 0H48.3244ZM48.3244 5.42441L19.5409 5.43887C10.8261 5.4895 5.61519 10.6969 5.61519 19.3724V52.6276C5.61519 61.3609 10.8748 66.5756 19.6756 66.5756L48.4591 66.5647C57.1739 66.5141 62.3848 61.2994 62.3848 52.6276V19.3724C62.3848 10.6391 57.129 5.42441 48.3244 5.42441ZM47.6022 48.7246C49.152 48.7246 50.4098 49.9396 50.4098 51.4368C50.4098 52.9339 49.152 54.149 47.6022 54.149H20.5744C19.0247 54.149 17.7668 52.9339 17.7668 51.4368C17.7668 49.9396 19.0247 48.7246 20.5744 48.7246H47.6022ZM47.6022 33.5851C49.152 33.5851 50.4098 34.8001 50.4098 36.2973C50.4098 37.7944 49.152 39.0095 47.6022 39.0095H20.5744C19.0247 39.0095 17.7668 37.7944 17.7668 36.2973C17.7668 34.8001 19.0247 33.5851 20.5744 33.5851H47.6022ZM30.8866 18.4806C32.4364 18.4806 33.6942 19.6957 33.6942 21.1928C33.6942 22.6899 32.4364 23.905 30.8866 23.905H20.5733C19.0235 23.905 17.7657 22.6899 17.7657 21.1928C17.7657 19.6957 19.0235 18.4806 20.5733 18.4806H30.8866Z" fill="black" style="fill:black;fill-opacity:1;"/>
</g>
</g>
</svg>
